<svg xmlns="http://www.w3.org/2000/svg" fill="none" viewBox="65 89.5 406.06 137.74">
<g opacity="0.3">
<path d="M80.5 175.5L80.5765 175.194C81.1912 172.735 82.0016 170.33 83 168L83.396 167.01C83.7969 166.008 84.3281 165.063 84.9757 164.199C85.3248 163.734 85.7065 163.294 86.1179 162.882L88.7208 160.279C89.2396 159.76 89.7946 159.279 90.3815 158.839L91.1805 158.24C91.3931 158.08 91.6195 157.94 91.8572 157.821L92.1838 157.658C92.3932 157.553 92.5844 157.416 92.75 157.25C92.9156 157.084 93.1068 156.947 93.3162 156.842L94 156.5L95 156C95.9926 155.338 97.0916 154.852 98.2489 154.563L98.5 154.5L100 154L104 153L108 152.5H108.646C108.873 152.5 109.09 152.41 109.25 152.25L109.396 152.104C109.463 152.037 109.5 151.947 109.5 151.854C109.5 151.658 109.658 151.5 109.854 151.5C109.947 151.5 110.037 151.463 110.104 151.396L110.323 151.177C110.436 151.064 110.59 151 110.75 151C110.91 151 111.064 150.936 111.177 150.823L111.321 150.679C111.439 150.561 111.582 150.472 111.74 150.418L127.5 145L128.733 144.589C128.91 144.53 129.095 144.5 129.281 144.5H129.646C129.873 144.5 130.09 144.59 130.25 144.75L130.323 144.823C130.436 144.936 130.5 145.09 130.5 145.25C130.5 145.41 130.564 145.564 130.677 145.677L131 146C131.327 146.327 131.559 146.737 131.671 147.186L132 148.5L135 159L138 167.5L138.392 168.677C138.464 168.892 138.551 169.102 138.652 169.305L138.842 169.684C138.947 169.893 139.084 170.084 139.25 170.25C139.416 170.416 139.553 170.607 139.658 170.816L139.919 171.338C139.972 171.444 140 171.562 140 171.682C140 171.885 140.081 172.081 140.225 172.225L140.323 172.323C140.436 172.436 140.5 172.59 140.5 172.75C140.5 172.91 140.564 173.064 140.677 173.177L141 173.5L141.105 173.605C141.367 173.867 141.584 174.169 141.75 174.5C141.916 174.831 142.133 175.133 142.395 175.395L142.5 175.5C142.833 175.833 143.197 176.131 143.588 176.392L144.386 176.924C144.462 176.975 144.532 177.032 144.596 177.096C144.855 177.355 145.205 177.5 145.571 177.5H145.637C145.876 177.5 146.111 177.556 146.325 177.662L146.5 177.75C146.829 177.914 147.191 178 147.559 178H148.064C148.351 178 148.633 178.067 148.89 178.195L148.964 178.232C149.31 178.405 149.706 178.448 150.082 178.355C150.888 178.153 151.411 177.375 151.293 176.553L151.037 174.756C151.012 174.585 151 174.414 151 174.242V172.55C151 170.854 151.167 169.163 151.5 167.5L153 163L155.5 157.5C156.827 155.177 158.459 153.041 160.35 151.15L163.5 148L166.634 145.314C166.877 145.105 167.145 144.928 167.431 144.784L167.875 144.562C167.958 144.521 168.033 144.467 168.099 144.401C168.342 144.158 168.417 143.793 168.289 143.473L168.122 143.056C167.787 142.218 166.808 141.846 166.001 142.249L165.857 142.322C165.622 142.439 165.363 142.5 165.101 142.5H164.12C163.06 142.5 162.02 142.212 161.111 141.667L160.402 141.241C160.134 141.081 159.854 140.942 159.565 140.826L158.217 140.287C157.755 140.102 157.377 139.754 157.155 139.309L156.816 138.632C156.627 138.255 156.701 137.799 157 137.5C157.299 137.201 157.755 137.127 158.132 137.316L158.343 137.422C158.447 137.474 158.558 137.512 158.672 137.534L160.504 137.901C160.833 137.967 161.152 138.076 161.452 138.226L161.822 138.411C161.94 138.47 162.048 138.548 162.141 138.641L162.275 138.775C162.419 138.919 162.615 139 162.818 139C162.938 139 163.056 139.028 163.162 139.081L163.829 139.415C163.942 139.471 164.065 139.5 164.191 139.5H164.207C164.645 139.5 165.062 139 165.5 139C165.508 139 165.516 139 165.524 139C166.192 138.977 166.299 138.097 166 137.5L165.947 137.394C165.673 136.846 165.113 136.5 164.5 136.5H163.5H163.059C162.691 136.5 162.329 136.414 162 136.25L161.825 136.162C161.611 136.056 161.376 136 161.137 136C160.729 136 160.338 135.838 160.05 135.55L160 135.5L159.677 135.177C159.564 135.064 159.41 135 159.25 135C159.09 135 158.936 134.936 158.823 134.823L158.5 134.5L158 134L157.642 133.642C157.551 133.551 157.5 133.428 157.5 133.299C157.5 133.116 157.396 132.948 157.232 132.866L156.85 132.675C156.623 132.561 156.439 132.377 156.325 132.15L156.081 131.662C156.028 131.556 156 131.438 156 131.318C156 131.115 155.919 130.919 155.775 130.775L155.677 130.677C155.564 130.564 155.5 130.41 155.5 130.25C155.5 130.09 155.436 129.936 155.323 129.823L155.25 129.75C155.09 129.59 155 129.373 155 129.146V129V128.354C155 128.127 154.91 127.91 154.75 127.75C154.59 127.59 154.5 127.373 154.5 127.146V126V125V124.859C154.5 124.623 154.555 124.39 154.66 124.179C154.874 123.752 154.874 123.248 154.66 122.821L154.5 122.5L153.736 120.589C153.58 120.2 153.5 119.785 153.5 119.365V118.508C153.5 118.183 153.629 117.871 153.859 117.641C153.952 117.548 154.06 117.47 154.178 117.411L155.205 116.898C155.728 116.636 156.304 116.5 156.889 116.5H156.982C157.325 116.5 157.666 116.555 157.991 116.664C158.646 116.882 159.354 116.882 160.009 116.664L160.334 116.555C160.444 116.519 160.559 116.5 160.674 116.5C160.887 116.5 161.094 116.437 161.271 116.319L162.149 115.734C162.378 115.582 162.647 115.5 162.922 115.5H163.05C163.338 115.5 163.615 115.385 163.818 115.182C163.938 115.062 164.083 114.972 164.244 114.919L165.256 114.581C165.417 114.528 165.562 114.438 165.682 114.318C165.885 114.115 166.162 114 166.45 114H167.5H168H168.174C168.354 114 168.5 113.854 168.5 113.674C168.5 113.565 168.554 113.464 168.645 113.403L169.637 112.742C169.875 112.584 170.067 112.365 170.195 112.109C170.39 111.719 170.732 111.423 171.146 111.285L171.756 111.081C171.917 111.028 172.062 110.938 172.182 110.818C172.385 110.615 172.662 110.5 172.95 110.5H173.5H174C174.32 110.5 174.627 110.627 174.854 110.854L175 111C175.299 111.299 175.364 111.809 175.565 112.18C175.664 112.362 175.818 112.5 176 112.5C176.26 112.5 176.394 112.712 176.455 112.86C176.493 112.95 176.5 113.049 176.5 113.148C176.5 113.379 176.554 113.608 176.658 113.815L176.776 114.053C176.923 114.347 177 114.671 177 115V115.5C177 115.776 177.224 116 177.5 116C177.812 116 178.104 116.156 178.277 116.416L178.905 117.358C178.968 117.452 179.04 117.54 179.121 117.621L179.175 117.675C179.668 118.168 179.303 119.5 180 119.5C180.4 119.5 180.833 120.833 181 121.5L181.107 121.822C181.367 122.602 181.5 123.419 181.5 124.242C181.5 124.746 181.45 125.249 181.351 125.743L181.219 126.404C181.074 127.131 180.832 127.836 180.5 128.5C179.835 129.498 179.073 130.427 178.225 131.275L178 131.5L177.791 131.709C177.318 132.182 177.201 132.903 177.5 133.5L177.867 134.235C177.955 134.409 178 134.601 178 134.796C178 134.931 178.022 135.065 178.064 135.193L178.776 137.329C178.923 137.77 179.171 138.171 179.5 138.5L179.646 138.646C179.873 138.873 180 139.18 180 139.5V139.896C180 139.963 179.974 140.026 179.927 140.073C179.769 140.231 179.881 140.5 180.104 140.5H183.5H184H185C185.993 140.5 186.981 140.66 187.923 140.974L188 141L190 141.5L191.233 141.911C191.41 141.97 191.595 142 191.781 142H192.146C192.373 142 192.59 142.09 192.75 142.25L192.775 142.275C192.919 142.419 193.115 142.5 193.318 142.5C193.438 142.5 193.556 142.528 193.662 142.581L194.5 143C195.291 143.396 196.072 143.827 196.799 144.331C194.867 142.692 199.076 145.723 201.5 147.5C202.49 148.16 203.34 149.01 204 150L204.825 151.238C204.941 151.412 205.075 151.575 205.223 151.723C205.407 151.907 205.568 152.113 205.702 152.336L206.917 154.361C206.972 154.453 207.038 154.538 207.115 154.615L207.275 154.775C207.419 154.919 207.5 155.115 207.5 155.318C207.5 155.438 207.528 155.556 207.581 155.662L208 156.5L208.383 157.266C208.461 157.421 208.562 157.562 208.685 157.685C208.891 157.891 209.037 158.15 209.108 158.433L209.386 159.542C209.462 159.847 209.571 160.141 209.711 160.422C209.903 160.805 210.036 161.215 210.106 161.637L210.494 163.965C210.498 163.988 210.5 164.012 210.5 164.035C210.5 164.285 210.714 164.481 210.963 164.458L213.223 164.252C214.705 164.118 215.74 162.725 215.443 161.268L210.5 137L209.896 132.164C209.639 130.113 208.707 128.207 207.245 126.745C206.102 125.602 205.276 124.179 204.851 122.619L204.416 121.027C204.14 120.013 204 118.968 204 117.918C204 116.647 204.205 115.386 204.606 114.181L204.67 113.991C205.218 112.347 206.088 110.828 207.229 109.524L207.27 109.477C208.412 108.172 209.798 107.101 211.35 106.325L211.949 106.025C213.956 105.022 216.168 104.5 218.411 104.5H218.535C221.127 104.5 223.669 105.219 225.877 106.578L226.311 106.846C228.074 107.93 229.528 109.45 230.533 111.26C231.173 112.412 231.62 113.662 231.856 114.959L231.915 115.28C232.3 117.398 232.192 119.577 231.601 121.647L231.5 122L231.147 124.118C231.051 124.696 230.802 125.237 230.428 125.687C229.336 126.997 229.423 128.923 230.629 130.129L231.678 131.178C232.219 131.719 232.626 132.377 232.867 133.102L234.613 138.34C235.203 140.109 235.616 141.932 235.848 143.782L236.426 148.409C236.475 148.802 236.563 149.189 236.688 149.565C237.207 151.12 238.338 152.397 239.82 153.099L242.015 154.139C244.878 155.495 248.302 154.546 250.06 151.911C250.676 150.986 251.528 150.236 252.522 149.739C255.152 148.424 256.582 145.495 255.983 142.617L254.805 136.962C254.602 135.99 254.297 135.043 253.894 134.136L253.718 133.741C252.915 131.934 252.5 129.978 252.5 128V127.372C252.5 126.531 252.975 125.762 253.727 125.386C254.224 125.138 254.796 125.085 255.331 125.237L256.159 125.474C257.331 125.809 258.59 125.631 259.624 124.985L260.43 124.481C261.384 123.885 261.897 122.781 261.738 121.667C261.591 120.639 262.016 119.613 262.847 118.99L262.991 118.881C263.327 118.63 263.71 118.448 264.117 118.346L264.666 118.208C265.215 118.071 265.788 118.058 266.343 118.169L266.414 118.183C267.424 118.385 268.302 119.004 268.832 119.887C269.264 120.607 269.435 121.454 269.316 122.285L269.2 123.102C269.068 124.021 269.153 124.959 269.447 125.84L269.891 127.174C270.276 128.329 271.162 129.248 272.303 129.676C273.661 130.185 275.188 129.926 276.303 128.998L277.231 128.224C277.41 128.075 277.6 127.94 277.8 127.82L278.295 127.523C279.353 126.888 280 125.745 280 124.512V122C280 121.448 280.448 121 281 121H282.5H284.154C284.967 121 285.698 120.505 286 119.75C286.302 118.995 287.033 118.5 287.846 118.5H288H289.542C290.447 118.5 291.285 118.975 291.75 119.75C292.215 120.525 293.053 121 293.958 121H295.143C295.707 121 296.262 121.131 296.766 121.383L297.134 121.567C297.692 121.846 298.128 122.32 298.36 122.899C298.746 123.866 299.683 124.5 300.724 124.5H300.867C302.123 124.5 303.22 123.651 303.535 122.435L305.112 116.355C305.929 113.202 308.775 111 312.032 111C312.674 111 313.314 111.087 313.933 111.257L327.359 114.961C327.453 114.987 327.549 115 327.646 115C328.34 115 328.854 115.644 328.7 116.32L327.35 122.262C327.052 123.569 328.529 124.551 329.62 123.772C329.867 123.595 330.163 123.5 330.467 123.5H331.25C332.061 123.5 332.851 123.237 333.5 122.75L333.7 122.6C334.219 122.211 334.851 122 335.5 122H337.4C339.043 122 340.598 122.747 341.624 124.031C341.874 124.343 342.157 124.626 342.469 124.876L344.194 126.255C344.392 126.413 344.527 126.636 344.577 126.884C344.751 127.754 345.844 128.05 346.434 127.387L348.701 124.836C348.899 124.614 349.06 124.36 349.177 124.086L349.738 122.778C350.2 121.7 351.261 121 352.435 121C352.808 121 353.178 120.929 353.525 120.79L354.847 120.261C355.278 120.089 355.669 119.831 355.997 119.503C356.639 118.861 357.51 118.5 358.418 118.5H360H360.924C362.299 118.5 363.665 118.722 364.97 119.157C366.639 119.713 368.175 120.607 369.483 121.784L370.666 122.85C371.875 123.938 372.841 125.268 373.502 126.754C374.16 128.235 374.5 129.837 374.5 131.458V133.5C374.5 136.154 374.863 138.796 375.579 141.352L377.395 147.839C377.798 149.278 378.305 150.686 378.912 152.051L379.307 152.942C379.768 153.979 380.138 155.054 380.414 156.155L380.858 157.933C380.952 158.309 381 158.696 381 159.085C381 159.689 381.115 160.288 381.34 160.85L382 162.5L384.5 172.5L385.596 175.789C386.136 177.408 387.651 178.5 389.358 178.5C391.198 178.5 392.797 177.233 393.217 175.44L406.855 117.279C408.31 111.077 414.559 107.265 420.74 108.81C426.732 110.308 430.446 116.3 429.122 122.334L426.44 134.552C424.643 142.736 432.156 149.913 440.249 147.746C445.995 146.207 451.939 149.437 453.774 155.094L455.907 161.673C456.271 162.794 455.975 164.025 455.142 164.858C454.723 165.277 454.193 165.569 453.615 165.7L451.141 166.258C445.871 167.448 443.981 173.981 447.801 177.801C448.265 178.265 448.659 178.792 448.973 179.367L449.451 180.244C452.432 185.708 451.384 192.491 446.894 196.802L442.711 200.818C442.255 201.255 441.647 201.5 441.015 201.5C440.365 201.5 439.742 201.242 439.283 200.783L435.5 197L422.248 181.54C421.277 180.406 421.389 178.704 422.502 177.709C424.584 175.845 422.874 172.425 420.134 172.973L419.413 173.117C418.253 173.349 417.345 174.253 417.107 175.411L414.465 188.243C414.194 189.557 413.037 190.5 411.696 190.5C410.187 190.5 408.944 191.685 408.872 193.193L408.626 198.36C408.544 200.065 407.865 201.688 406.707 202.942L404.755 205.057C403.456 206.464 401.327 206.718 399.734 205.656L398.325 204.717C398.122 204.581 398 204.353 398 204.109C398 203.756 397.748 203.454 397.401 203.391L394.919 202.94C393.45 202.673 392.279 201.56 391.937 200.107L391.697 199.088C391.031 196.259 388.229 194.478 385.385 195.077L381 196L373.327 198.149C370.172 199.032 366.833 199.014 363.688 198.097C359.097 196.757 354.157 197.352 350.014 199.742L346.165 201.963C344.452 202.951 342.429 203.257 340.5 202.818L336.376 201.881C334.263 201.401 332.177 202.779 331.789 204.911C331.604 205.926 331.015 206.823 330.156 207.396L328.5 208.5L328.183 208.658C326.419 209.541 324.473 210 322.5 210H319.811C318.651 210 317.539 209.539 316.72 208.72L316.665 208.665C316.555 208.555 316.453 208.437 316.36 208.313C315.541 207.221 314.133 206.748 312.821 207.123L312.55 207.2C311.865 207.396 311.25 207.785 310.781 208.322L309.949 209.272C308.692 210.71 306.96 211.649 305.07 211.919L303.427 212.153C301.841 212.38 300.221 212.154 298.757 211.503C297.284 210.849 296.026 209.788 295.132 208.448C294.712 207.819 294.379 207.137 294.14 206.42L294.048 206.144C293.685 205.055 293.5 203.915 293.5 202.767V202.5V201.39C293.5 201.133 293.56 200.881 293.674 200.652C294.115 199.771 293.691 198.703 292.766 198.364L283.676 195.031C281.011 194.054 278.061 194.22 275.522 195.489L272.497 197.002C271.171 197.665 269.768 198.163 268.321 198.484L266 199L262.423 199.671C259.481 200.222 256.494 200.5 253.5 200.5C252.001 200.5 250.663 199.558 250.159 198.146L248.5 193.5L246.521 187.96C246.177 186.996 245.65 186.107 244.97 185.341C243.125 183.265 240.333 182.298 237.599 182.786L228 184.5C225.477 185.061 223.833 187.497 224.258 190.047L224.292 190.254C224.428 191.07 224.343 191.907 224.046 192.679C222.991 195.424 219.508 199.141 216.769 200.209C216.161 200.446 215.69 200.577 215.5 200.5C215.249 200.398 214.638 200.276 213.944 200.186C213.502 200.129 209.278 198.348 209 198C208.011 197.011 207.246 195.823 206.755 194.514L206 192.5L205.696 191.892C205.571 191.641 205.55 191.35 205.639 191.084C205.834 190.499 205.489 189.872 204.891 189.723L204.688 189.672C204.261 189.565 203.81 189.69 203.499 190.001L198.777 194.723C197.603 195.897 196.216 196.836 194.691 197.49L189.769 199.599C187.598 200.53 185.322 201.196 182.991 201.585L181.476 201.837C178.848 202.275 176.162 202.218 173.556 201.67C169.915 200.903 166.537 199.2 163.756 196.728L159.784 193.197C159.263 192.734 158.804 192.207 158.418 191.627L157.396 190.094C156.524 188.786 155.056 188 153.483 188H152.541C150.786 188 149.289 189.269 149 191L148.567 194.232C148.523 194.563 148.415 194.883 148.251 195.173C147.787 195.993 146.918 196.5 145.976 196.5H145.849C145.617 196.5 145.386 196.528 145.162 196.585L143.5 197L142.534 197.161C141.192 197.385 139.819 197.33 138.5 197L136 196.5L134.181 196.045C134.061 196.015 133.937 196 133.813 196C133.305 196 132.831 196.254 132.549 196.676L132.272 197.092C132.092 197.361 131.861 197.592 131.592 197.772L130.997 198.169C130.666 198.389 130.359 198.641 130.078 198.922L129.5 199.5C128.502 200.498 127.409 201.394 126.235 202.177L123.5 204L121.106 205.197C118.719 206.39 116.147 207.169 113.5 207.5L111.517 207.665C108.846 207.888 106.159 207.832 103.5 207.5C101.852 207.5 100.222 207.154 98.7155 206.485L96.5 205.5L94.9398 204.72C93.3172 203.909 91.7788 202.939 90.3468 201.825L89.6978 201.321C88.5692 200.443 87.5384 199.446 86.623 198.348C85.8758 197.451 85.2088 196.49 84.6296 195.477L84.1808 194.691C82.4077 191.588 81.1992 188.195 80.6117 184.67L80.5 184L80.1477 181.534C80.0494 180.846 80 180.151 80 179.455C80 178.488 80.0956 177.522 80.2854 176.573L80.5 175.5Z" fill="#29EAC4"/>
<path d="M80.5 175.5L80.5765 175.194C81.1912 172.735 82.0016 170.33 83 168L83.396 167.01C83.7969 166.008 84.3281 165.063 84.9757 164.199C85.3248 163.734 85.7065 163.294 86.1179 162.882L88.7208 160.279C89.2396 159.76 89.7946 159.279 90.3815 158.839L91.1805 158.24C91.3931 158.08 91.6195 157.94 91.8572 157.821L92.1838 157.658C92.3932 157.553 92.5844 157.416 92.75 157.25C92.9156 157.084 93.1068 156.947 93.3162 156.842L94 156.5L95 156C95.9926 155.338 97.0916 154.852 98.2489 154.563L98.5 154.5L100 154L104 153L108 152.5H108.646C108.873 152.5 109.09 152.41 109.25 152.25L109.396 152.104C109.463 152.037 109.5 151.947 109.5 151.854C109.5 151.658 109.658 151.5 109.854 151.5C109.947 151.5 110.037 151.463 110.104 151.396L110.323 151.177C110.436 151.064 110.59 151 110.75 151C110.91 151 111.064 150.936 111.177 150.823L111.321 150.679C111.439 150.561 111.582 150.472 111.74 150.418L127.5 145L128.733 144.589C128.91 144.53 129.095 144.5 129.281 144.5H129.646C129.873 144.5 130.09 144.59 130.25 144.75L130.323 144.823C130.436 144.936 130.5 145.09 130.5 145.25C130.5 145.41 130.564 145.564 130.677 145.677L131 146C131.327 146.327 131.559 146.737 131.671 147.186L132 148.5L135 159L138 167.5L138.392 168.677C138.464 168.892 138.551 169.102 138.652 169.305L138.842 169.684C138.947 169.893 139.084 170.084 139.25 170.25C139.416 170.416 139.553 170.607 139.658 170.816L139.919 171.338C139.972 171.444 140 171.562 140 171.682C140 171.885 140.081 172.081 140.225 172.225L140.323 172.323C140.436 172.436 140.5 172.59 140.5 172.75C140.5 172.91 140.564 173.064 140.677 173.177L141 173.5L141.105 173.605C141.367 173.867 141.584 174.169 141.75 174.5C141.916 174.831 142.133 175.133 142.395 175.395L142.5 175.5C142.833 175.833 143.197 176.131 143.588 176.392L144.386 176.924C144.462 176.975 144.532 177.032 144.596 177.096C144.855 177.355 145.205 177.5 145.571 177.5H145.637C145.876 177.5 146.111 177.556 146.325 177.662L146.5 177.75C146.829 177.914 147.191 178 147.559 178H148.064C148.351 178 148.633 178.067 148.89 178.195L148.964 178.232C149.31 178.405 149.706 178.448 150.082 178.355C150.888 178.153 151.411 177.375 151.293 176.553L151.037 174.756C151.012 174.585 151 174.414 151 174.242V172.55C151 170.854 151.167 169.163 151.5 167.5L153 163L155.5 157.5C156.827 155.177 158.459 153.041 160.35 151.15L163.5 148L166.634 145.314C166.877 145.105 167.145 144.928 167.431 144.784L167.875 144.562C167.958 144.521 168.033 144.467 168.099 144.401C168.342 144.158 168.417 143.793 168.289 143.473L168.122 143.056C167.787 142.218 166.808 141.846 166.001 142.249L165.857 142.322C165.622 142.439 165.363 142.5 165.101 142.5H164.12C163.06 142.5 162.02 142.212 161.111 141.667L160.402 141.241C160.134 141.081 159.854 140.942 159.565 140.826L158.217 140.287C157.755 140.102 157.377 139.754 157.155 139.309L156.816 138.632C156.627 138.255 156.701 137.799 157 137.5C157.299 137.201 157.755 137.127 158.132 137.316L158.343 137.422C158.447 137.474 158.558 137.512 158.672 137.534L160.504 137.901C160.833 137.967 161.152 138.076 161.452 138.226L161.822 138.411C161.94 138.47 162.048 138.548 162.141 138.641L162.275 138.775C162.419 138.919 162.615 139 162.818 139C162.938 139 163.056 139.028 163.162 139.081L163.829 139.415C163.942 139.471 164.065 139.5 164.191 139.5H164.207C164.645 139.5 165.062 139 165.5 139C165.508 139 165.516 139 165.524 139C166.192 138.977 166.299 138.097 166 137.5L165.947 137.394C165.673 136.846 165.113 136.5 164.5 136.5H163.5H163.059C162.691 136.5 162.329 136.414 162 136.25L161.825 136.162C161.611 136.056 161.376 136 161.137 136C160.729 136 160.338 135.838 160.05 135.55L160 135.5L159.677 135.177C159.564 135.064 159.41 135 159.25 135C159.09 135 158.936 134.936 158.823 134.823L158.5 134.5L158 134L157.642 133.642C157.551 133.551 157.5 133.428 157.5 133.299C157.5 133.116 157.396 132.948 157.232 132.866L156.85 132.675C156.623 132.561 156.439 132.377 156.325 132.15L156.081 131.662C156.028 131.556 156 131.438 156 131.318C156 131.115 155.919 130.919 155.775 130.775L155.677 130.677C155.564 130.564 155.5 130.41 155.5 130.25C155.5 130.09 155.436 129.936 155.323 129.823L155.25 129.75C155.09 129.59 155 129.373 155 129.146V129V128.354C155 128.127 154.91 127.91 154.75 127.75C154.59 127.59 154.5 127.373 154.5 127.146V126V125V124.859C154.5 124.623 154.555 124.39 154.66 124.179C154.874 123.752 154.874 123.248 154.66 122.821L154.5 122.5L153.736 120.589C153.58 120.2 153.5 119.785 153.5 119.365V118.508C153.5 118.183 153.629 117.871 153.859 117.641C153.952 117.548 154.06 117.47 154.178 117.411L155.205 116.898C155.728 116.636 156.304 116.5 156.889 116.5H156.982C157.325 116.5 157.666 116.555 157.991 116.664C158.646 116.882 159.354 116.882 160.009 116.664L160.334 116.555C160.444 116.519 160.559 116.5 160.674 116.5C160.887 116.5 161.094 116.437 161.271 116.319L162.149 115.734C162.378 115.582 162.647 115.5 162.922 115.5H163.05C163.338 115.5 163.615 115.385 163.818 115.182C163.938 115.062 164.083 114.972 164.244 114.919L165.256 114.581C165.417 114.528 165.562 114.438 165.682 114.318C165.885 114.115 166.162 114 166.45 114H167.5H168H168.174C168.354 114 168.5 113.854 168.5 113.674C168.5 113.565 168.554 113.464 168.645 113.403L169.637 112.742C169.875 112.584 170.067 112.365 170.195 112.109C170.39 111.719 170.732 111.423 171.146 111.285L171.756 111.081C171.917 111.028 172.062 110.938 172.182 110.818C172.385 110.615 172.662 110.5 172.95 110.5H173.5H174C174.32 110.5 174.627 110.627 174.854 110.854L175 111C175.299 111.299 175.364 111.809 175.565 112.18C175.664 112.362 175.818 112.5 176 112.5C176.26 112.5 176.394 112.712 176.455 112.86C176.493 112.95 176.5 113.049 176.5 113.148C176.5 113.379 176.554 113.608 176.658 113.815L176.776 114.053C176.923 114.347 177 114.671 177 115V115.5C177 115.776 177.224 116 177.5 116C177.812 116 178.104 116.156 178.277 116.416L178.905 117.358C178.968 117.452 179.04 117.54 179.121 117.621L179.175 117.675C179.668 118.168 179.303 119.5 180 119.5C180.4 119.5 180.833 120.833 181 121.5L181.107 121.822C181.367 122.602 181.5 123.419 181.5 124.242C181.5 124.746 181.45 125.249 181.351 125.743L181.219 126.404C181.074 127.131 180.832 127.836 180.5 128.5C179.835 129.498 179.073 130.427 178.225 131.275L178 131.5L177.791 131.709C177.318 132.182 177.201 132.903 177.5 133.5L177.867 134.235C177.955 134.409 178 134.601 178 134.796C178 134.931 178.022 135.065 178.064 135.193L178.776 137.329C178.923 137.77 179.171 138.171 179.5 138.5L179.646 138.646C179.873 138.873 180 139.18 180 139.5V139.896C180 139.963 179.974 140.026 179.927 140.073C179.769 140.231 179.881 140.5 180.104 140.5H183.5H184H185C185.994 140.5 186.981 140.66 187.923 140.974L188 141L190 141.5L191.233 141.911C191.41 141.97 191.595 142 191.781 142H192.146C192.373 142 192.59 142.09 192.75 142.25L192.775 142.275C192.919 142.419 193.115 142.5 193.318 142.5C193.438 142.5 193.556 142.528 193.662 142.581L194.5 143C195.828 143.664 197.127 144.429 198.189 145.468C198.279 145.557 197.994 145.329 197 144.5C194.6 142.5 199 145.667 201.5 147.5C202.49 148.16 203.34 149.01 204 150L204.825 151.238C204.941 151.412 205.075 151.575 205.223 151.723C205.407 151.907 205.568 152.113 205.702 152.336L206.917 154.361C206.972 154.453 207.038 154.538 207.115 154.615L207.275 154.775C207.419 154.919 207.5 155.115 207.5 155.318C207.5 155.438 207.528 155.556 207.581 155.662L208 156.5L208.383 157.266C208.461 157.421 208.562 157.562 208.685 157.685C208.891 157.891 209.037 158.15 209.108 158.433L209.386 159.542C209.462 159.847 209.571 160.142 209.711 160.422C209.903 160.805 210.036 161.215 210.106 161.637L210.494 163.965C210.498 163.988 210.5 164.012 210.5 164.035C210.5 164.285 210.714 164.481 210.963 164.458L213.223 164.252C214.705 164.118 215.74 162.725 215.443 161.268L210.5 137L209.896 132.164C209.639 130.113 208.707 128.207 207.245 126.745C206.102 125.602 205.276 124.179 204.851 122.619L204.416 121.027C204.14 120.013 204 118.968 204 117.918C204 116.647 204.205 115.386 204.606 114.181L204.67 113.991C205.218 112.347 206.088 110.828 207.229 109.524L207.27 109.477C208.412 108.172 209.798 107.101 211.35 106.325L211.949 106.025C213.956 105.022 216.168 104.5 218.411 104.5H218.535C221.127 104.5 223.669 105.219 225.877 106.578L226.311 106.846C228.074 107.93 229.528 109.45 230.533 111.26C231.173 112.412 231.62 113.662 231.856 114.959L231.915 115.28C232.3 117.398 232.192 119.577 231.601 121.647L231.5 122L231.147 124.118C231.051 124.696 230.802 125.237 230.428 125.687C229.336 126.997 229.423 128.923 230.629 130.129L231.678 131.178C232.219 131.719 232.626 132.377 232.867 133.102L234.613 138.34C235.203 140.109 235.616 141.932 235.848 143.782L236.426 148.409C236.475 148.802 236.563 149.189 236.688 149.565C237.207 151.12 238.338 152.397 239.82 153.099L242.015 154.139C244.878 155.495 248.302 154.546 250.06 151.911C250.676 150.986 251.528 150.236 252.522 149.739C255.152 148.424 256.582 145.495 255.983 142.617L254.805 136.962C254.602 135.99 254.297 135.043 253.894 134.136L253.718 133.741C252.915 131.934 252.5 129.978 252.5 128V127.372C252.5 126.531 252.975 125.762 253.727 125.386C254.224 125.138 254.796 125.085 255.33 125.237L256.159 125.474C257.331 125.809 258.59 125.631 259.624 124.985L260.43 124.481C261.384 123.885 261.897 122.781 261.738 121.667C261.591 120.639 262.016 119.613 262.847 118.99L262.991 118.881C263.327 118.63 263.71 118.448 264.117 118.346L264.666 118.208C265.215 118.071 265.788 118.058 266.343 118.169L266.414 118.183C267.424 118.385 268.302 119.004 268.832 119.887C269.264 120.607 269.435 121.454 269.316 122.285L269.2 123.102C269.068 124.021 269.153 124.959 269.447 125.84L269.891 127.174C270.276 128.329 271.162 129.248 272.303 129.676C273.661 130.185 275.188 129.926 276.303 128.998L277.231 128.224C277.41 128.075 277.6 127.94 277.8 127.82L278.295 127.523C279.353 126.888 280 125.745 280 124.512V122C280 121.448 280.448 121 281 121H282.5H284.154C284.967 121 285.698 120.505 286 119.75C286.302 118.995 287.033 118.5 287.846 118.5H288H289.542C290.447 118.5 291.285 118.975 291.75 119.75C292.215 120.525 293.053 121 293.958 121H295.143C295.707 121 296.262 121.131 296.766 121.383L297.134 121.567C297.692 121.846 298.128 122.32 298.36 122.899C298.746 123.866 299.683 124.5 300.724 124.5H300.867C302.123 124.5 303.22 123.651 303.535 122.435L305.112 116.355C305.929 113.202 308.775 111 312.032 111C312.674 111 313.314 111.087 313.933 111.257L327.359 114.961C327.453 114.987 327.549 115 327.646 115C328.34 115 328.854 115.644 328.7 116.32L327.35 122.262C327.052 123.569 328.529 124.551 329.62 123.772C329.867 123.595 330.163 123.5 330.467 123.5H331.25C332.061 123.5 332.851 123.237 333.5 122.75L333.7 122.6C334.219 122.211 334.851 122 335.5 122H337.4C339.043 122 340.598 122.747 341.624 124.031C341.874 124.343 342.157 124.626 342.469 124.876L344.194 126.255C344.392 126.413 344.527 126.636 344.577 126.884C344.751 127.754 345.844 128.05 346.434 127.387L348.701 124.836C348.899 124.614 349.06 124.36 349.177 124.086L349.738 122.778C350.2 121.7 351.261 121 352.435 121C352.808 121 353.178 120.929 353.525 120.79L354.847 120.261C355.278 120.089 355.669 119.831 355.997 119.503C356.639 118.861 357.51 118.5 358.418 118.5H360H360.924C362.299 118.5 363.665 118.722 364.97 119.157C366.639 119.713 368.175 120.607 369.483 121.784L370.666 122.85C371.875 123.938 372.841 125.268 373.502 126.754C374.16 128.235 374.5 129.837 374.5 131.458V133.5C374.5 136.154 374.863 138.796 375.579 141.352L377.395 147.839C377.798 149.278 378.305 150.686 378.912 152.051L379.307 152.942C379.768 153.979 380.138 155.054 380.414 156.155L380.858 157.933C380.952 158.309 381 158.696 381 159.085C381 159.689 381.115 160.288 381.34 160.85L382 162.5L384.5 172.5L385.596 175.789C386.136 177.408 387.651 178.5 389.358 178.5C391.198 178.5 392.797 177.233 393.217 175.44L406.855 117.279C408.31 111.077 414.559 107.265 420.74 108.81C426.732 110.308 430.446 116.3 429.122 122.334L426.44 134.552C424.643 142.736 432.156 149.913 440.249 147.746C445.995 146.207 451.939 149.437 453.774 155.094L455.907 161.673C456.271 162.794 455.975 164.025 455.142 164.858C454.723 165.277 454.193 165.569 453.615 165.7L451.141 166.258C445.871 167.448 443.981 173.981 447.801 177.801C448.265 178.265 448.659 178.792 448.973 179.367L449.451 180.244C452.432 185.708 451.384 192.491 446.894 196.802L442.711 200.818C442.255 201.255 441.647 201.5 441.015 201.5C440.365 201.5 439.742 201.242 439.283 200.783L435.5 197L422.248 181.54C421.277 180.406 421.389 178.704 422.502 177.709C424.584 175.845 422.874 172.425 420.134 172.973L419.413 173.117C418.253 173.349 417.345 174.253 417.107 175.411L414.465 188.243C414.194 189.557 413.037 190.5 411.696 190.5C410.187 190.5 408.944 191.685 408.872 193.193L408.626 198.36C408.545 200.065 407.865 201.688 406.707 202.942L404.755 205.057C403.456 206.464 401.327 206.718 399.734 205.656L398.325 204.717C398.122 204.581 398 204.353 398 204.109C398 203.756 397.748 203.454 397.401 203.391L394.919 202.94C393.45 202.673 392.279 201.56 391.937 200.107L391.697 199.088C391.031 196.259 388.229 194.478 385.385 195.077L381 196L373.327 198.149C370.172 199.032 366.833 199.014 363.688 198.097C359.097 196.757 354.157 197.352 350.014 199.742L346.165 201.963C344.452 202.951 342.429 203.256 340.5 202.818L336.376 201.881C334.263 201.401 332.177 202.779 331.789 204.911C331.604 205.926 331.015 206.823 330.156 207.396L328.5 208.5L328.183 208.658C326.419 209.541 324.473 210 322.5 210H319.811C318.651 210 317.539 209.539 316.72 208.72L316.665 208.665C316.555 208.555 316.453 208.437 316.36 208.313C315.541 207.221 314.133 206.748 312.821 207.123L312.55 207.2C311.865 207.396 311.25 207.785 310.781 208.322L309.949 209.272C308.692 210.71 306.96 211.649 305.07 211.919L303.427 212.153C301.841 212.38 300.221 212.154 298.757 211.503C297.284 210.849 296.026 209.788 295.132 208.448C294.712 207.819 294.379 207.137 294.14 206.42L294.048 206.144C293.685 205.055 293.5 203.915 293.5 202.767V202.5V201.39C293.5 201.133 293.56 200.881 293.674 200.652C294.115 199.771 293.691 198.703 292.766 198.364L283.676 195.031C281.011 194.054 278.061 194.22 275.522 195.489L272.497 197.002C271.171 197.665 269.768 198.163 268.321 198.484L266 199L262.423 199.671C259.481 200.222 256.494 200.5 253.5 200.5C252.001 200.5 250.663 199.558 250.159 198.146L248.5 193.5L246.521 187.96C246.177 186.996 245.65 186.107 244.97 185.341C243.125 183.265 240.333 182.298 237.599 182.786L228 184.5C225.477 185.061 223.833 187.497 224.258 190.047L224.292 190.254C224.428 191.07 224.343 191.907 224.046 192.679C222.991 195.424 219.508 199.141 216.769 200.209C216.161 200.446 215.69 200.577 215.5 200.5C215.249 200.398 214.638 200.276 213.944 200.186C213.502 200.129 209.278 198.348 209 198C208.011 197.011 207.246 195.823 206.755 194.514L206 192.5L205.696 191.892C205.571 191.641 205.55 191.35 205.639 191.084C205.834 190.499 205.489 189.872 204.891 189.723L204.688 189.672C204.261 189.565 203.81 189.69 203.499 190.001L198.777 194.723C197.603 195.897 196.216 196.836 194.691 197.49L189.769 199.599C187.598 200.53 185.322 201.196 182.991 201.585L181.476 201.837C178.848 202.275 176.162 202.218 173.556 201.67C169.915 200.903 166.537 199.2 163.756 196.728L159.784 193.197C159.263 192.734 158.804 192.207 158.418 191.627L157.396 190.094C156.524 188.786 155.056 188 153.483 188H152.541C150.786 188 149.289 189.269 149 191L148.567 194.232C148.523 194.563 148.415 194.883 148.251 195.173C147.787 195.993 146.918 196.5 145.976 196.5H145.849C145.617 196.5 145.386 196.528 145.162 196.585L143.5 197L142.534 197.161C141.192 197.385 139.819 197.33 138.5 197L136 196.5L134.181 196.045C134.061 196.015 133.937 196 133.813 196C133.305 196 132.831 196.254 132.549 196.676L132.272 197.092C132.092 197.361 131.861 197.592 131.592 197.772L130.997 198.169C130.666 198.389 130.359 198.641 130.078 198.922L129.5 199.5C128.502 200.498 127.409 201.394 126.235 202.177L123.5 204L121.106 205.197C118.719 206.39 116.147 207.169 113.5 207.5L111.517 207.665C108.846 207.888 106.159 207.832 103.5 207.5C101.852 207.5 100.222 207.154 98.7155 206.485L96.5 205.5L94.9398 204.72C93.3172 203.909 91.7788 202.939 90.3468 201.825L89.6978 201.321C88.5692 200.443 87.5384 199.446 86.623 198.348C85.8758 197.451 85.2088 196.49 84.6296 195.477L84.1808 194.691C82.4077 191.588 81.1992 188.195 80.6117 184.67L80.5 184L80.1477 181.534C80.0494 180.846 80 180.151 80 179.455C80 178.488 80.0956 177.522 80.2854 176.573L80.5 175.5Z" stroke="#29EAC4" stroke-width="30"/>
</g>
<path d="M453.259 191.651L442.807 200.239C441.778 201.042 440.881 201.384 439.958 201.12C439.497 200.987 438.996 200.644 438.548 200.116C434.425 195.339 424.928 184.925 421.068 180.623C420.62 180.095 420.278 179.198 420.516 178.368C420.649 177.906 420.965 177.498 421.586 177.076L430.77 170.821C425.296 172.148 420.389 173.238 418.279 173.631L417.646 173.749L413.952 189.768C413.634 190.875 412.631 191.586 411.524 191.269L392.777 186.992C391.762 186.7 391.05 185.698 391.276 184.564L409.019 108.059L409.072 107.874C409.336 106.951 410.405 106.359 411.354 106.531L430.075 110.901L430.26 110.954C431.275 111.245 431.775 112.287 431.576 113.328L422.36 153.13C426.99 151.262 446.25 144.001 450.31 145.166C451.048 145.377 451.773 145.985 452.167 147.396L456.254 162.05C456.465 162.71 456.491 163.316 456.332 163.87C456.067 164.793 455.275 165.465 454.009 165.701C451.385 166.147 445.304 167.499 438.894 168.957C444.772 172.839 455.413 186.576 454.434 189.991C454.276 190.545 453.932 191.045 453.259 191.651Z" fill="url(#paint0_linear_1_2)"/>
<path d="M388.301 194.177L369.809 199.432L369.622 199.475C368.593 199.713 367.651 199.043 367.319 198.036L354.464 153.022C354.205 151.9 354.759 150.885 355.86 150.532L374.352 145.278L374.539 145.235C375.474 145.019 376.51 145.666 376.726 146.602L389.603 191.709L389.647 191.896C389.862 192.832 389.215 193.868 388.301 194.177ZM374.271 129.139C376.02 136.715 371.272 144.314 363.695 146.063C356.025 147.834 348.426 143.086 346.677 135.509C344.906 127.839 349.654 120.24 357.325 118.469C364.901 116.72 372.5 121.468 374.271 129.139Z" fill="url(#paint1_linear_1_2)"/>
<path d="M355.368 197.589L344.891 203.017C343.678 203.643 342.679 203.725 341.834 203.545C341.458 203.465 324.765 196.58 328.817 177.518C331.232 166.156 326.832 161 320.071 159.563L319.601 159.464L312.356 193.55C312.116 194.677 311.092 195.342 310.059 195.123L291.278 191.131C290.151 190.891 289.486 189.867 289.725 188.74L306.052 111.928C306.272 110.895 307.317 110.135 308.443 110.375L327.224 114.367C328.257 114.586 328.902 115.705 328.683 116.738L323.493 141.153C324.64 141.298 325.767 141.538 326.8 141.757C344.453 145.51 356.303 159.021 352.633 177.673C351.43 183.797 351.652 188.751 355.475 193.392C355.939 193.981 356.772 195.139 356.552 196.172C356.453 196.642 356.145 197.165 355.368 197.589Z" fill="url(#paint2_linear_1_2)"/>
<path d="M254.898 199.997L253.842 199.978C251.73 199.942 250.777 199.541 250.229 197.899L246.2 186.691C246.109 186.401 246.018 186.112 246.022 185.92C246.047 184.48 247.97 184.322 249.122 184.342C254.787 184.344 257.521 181.704 257.561 179.4C257.583 178.152 256.362 176.595 255.049 174.844L252.507 171.919C248.368 167.046 246.712 162.888 246.776 159.241C246.965 148.394 262.711 142.908 275.285 143.128C279.029 143.193 279.982 143.594 280.623 145.333L284.748 156.543C284.934 156.93 284.929 157.218 284.924 157.506C284.905 158.562 283.843 158.928 282.595 158.906L282.211 158.899C276.452 158.799 274.211 160.68 274.177 162.6C274.149 164.231 275.557 166.08 279.134 170.175C283.465 175.052 285.31 179.404 285.246 183.052C285.048 194.378 267.76 200.221 254.898 199.997Z" fill="url(#paint3_linear_1_2)"/>
<path d="M241.832 181.583L223.018 185.535L222.828 185.565C221.785 185.73 220.892 184.997 220.632 183.969L210.948 138.168C210.767 137.03 211.391 136.057 212.514 135.782L231.327 131.83L231.517 131.8C232.465 131.65 233.453 132.368 233.604 133.316L243.303 179.212L243.333 179.402C243.483 180.35 242.765 181.338 241.832 181.583ZM232.372 115.724C233.589 123.405 228.322 130.654 220.642 131.87C212.867 133.102 205.618 127.835 204.401 120.155C203.17 112.379 208.436 105.13 216.212 103.899C223.892 102.682 231.141 107.949 232.372 115.724Z" fill="url(#paint4_linear_1_2)"/>
<path d="M200.894 146.92C215.442 158.701 211.612 180.058 203.033 190.652C193.185 202.813 175.742 206.353 162.612 195.72C147.243 183.274 148.564 165.32 159.197 152.19C172.549 135.702 191.195 139.066 200.894 146.92ZM190.233 177.322C194.523 172.025 192.129 166.134 187.876 162.69C186.459 161.542 178.98 155.981 172.818 163.59C167.743 169.857 171.59 175.937 174.947 178.656C180.095 182.825 186.789 181.575 190.233 177.322Z" fill="url(#paint5_linear_1_2)"/>
<path d="M149.736 179.709L149.023 192.742C148.898 194.584 148.372 195.764 147.232 196.272C146.355 196.662 139.591 197.992 133.371 195.823C129.865 200.221 125.598 203.382 121.125 205.373C106.479 211.894 88.8522 206.291 82.5657 192.171C77.8801 181.647 78.5795 163.156 95.9442 155.425C100.329 153.473 105.056 152.524 109.14 152.492C109.393 151.644 110.065 151.029 111.118 150.561L111.556 150.366L127.314 144.926C129.672 144.086 130.794 144.953 131.262 146.005L131.458 146.444C133.783 154.971 135.952 163.148 138.529 168.936C140.872 174.198 143.516 177.54 146.986 177.781C148.058 177.829 149.257 177.926 149.648 178.803C149.726 178.978 149.755 179.28 149.736 179.709ZM121.189 184.748C119.911 182.585 118.642 180.207 117.432 177.489C116.417 175.208 115.45 172.801 114.454 170.092C112.621 168.807 109.706 168.633 107.163 169.766C101.638 172.226 100.95 178.942 102.942 183.415C105.128 188.326 110.423 191.013 116.123 188.475C117.79 187.733 119.563 186.523 121.189 184.748Z" fill="url(#paint6_linear_1_2)"/>
<g clip-path="url(#clip0_1_2)">
<path d="M215 194.333L211.667 191L215 187.667M211.667 191H218.333M223.333 191C223.333 195.602 219.602 199.333 215 199.333C210.398 199.333 206.667 195.602 206.667 191C206.667 186.398 210.398 182.667 215 182.667C219.602 182.667 223.333 186.398 223.333 191Z" stroke="#1E1E1E" stroke-width="2" stroke-linecap="round" stroke-linejoin="round"/>
</g>
<path d="M303 199.667L306.333 203L303 206.333M306.333 203H299.667M311.333 203C311.333 207.602 307.602 211.333 303 211.333C298.398 211.333 294.667 207.602 294.667 203C294.667 198.398 298.398 194.667 303 194.667C307.602 194.667 311.333 198.398 311.333 203Z" stroke="#1E1E1E" stroke-width="2" stroke-linecap="round" stroke-linejoin="round"/>
<g clip-path="url(#clip1_1_2)">
<path d="M332.667 131L336 127.667L339.333 131M336 127.667V134.333M344.333 131C344.333 135.602 340.602 139.333 336 139.333C331.398 139.333 327.667 135.602 327.667 131C327.667 126.398 331.398 122.667 336 122.667C340.602 122.667 344.333 126.398 344.333 131Z" stroke="#1E1E1E" stroke-width="2" stroke-linecap="round" stroke-linejoin="round"/>
</g>
<path d="M326.333 201L323 204.333L319.667 201M323 204.333V197.667M314.667 201C314.667 196.398 318.398 192.667 323 192.667C327.602 192.667 331.333 196.398 331.333 201C331.333 205.602 327.602 209.333 323 209.333C318.398 209.333 314.667 205.602 314.667 201Z" stroke="#1E1E1E" stroke-width="2" stroke-linecap="round" stroke-linejoin="round"/>
<g clip-path="url(#clip2_1_2)">
<path d="M390.667 189.667L402.75 192.583L404 198.833L399.833 203L393.583 201.75L390.667 189.667ZM390.667 189.667L396.988 195.988M399 203.833L404.833 198L407.333 200.5L401.5 206.333L399 203.833ZM399.833 197.167C399.833 198.087 399.087 198.833 398.167 198.833C397.246 198.833 396.5 198.087 396.5 197.167C396.5 196.246 397.246 195.5 398.167 195.5C399.087 195.5 399.833 196.246 399.833 197.167Z" stroke="#1E1E1E" stroke-width="2" stroke-linecap="round" stroke-linejoin="round"/>
</g>
<g clip-path="url(#clip3_1_2)">
<path d="M168.168 139.304C162.587 143.463 160.763 138.452 158.029 138.737M178.306 139.87L176.542 135.022C176.371 134.407 176.072 133.836 175.664 133.346C175.255 132.856 174.747 132.459 174.174 132.18C177.948 130.31 181.54 127.314 179.05 120.473C178.413 118.724 177.128 117.286 175.461 116.458C175.475 114.72 174.819 113.043 173.629 111.776C173.629 111.776 171.991 111.876 169.405 115.413C166.25 115.68 163.223 116.782 160.634 118.606C156.379 117.558 155.061 118.534 155.061 118.534C154.963 120.27 155.539 121.976 156.667 123.299C155.916 125.017 155.861 126.96 156.511 128.719C158.983 135.51 163.66 135.496 167.772 134.553C167.515 135.129 167.382 135.752 167.382 136.383C167.382 137.014 167.514 137.638 167.771 138.214L169.536 143.063" stroke="#1E1E1E" stroke-width="3" stroke-linecap="round" stroke-linejoin="round"/>
</g>
<g clip-path="url(#clip4_1_2)">
<path d="M264.732 124.833C266.333 125.262 267.978 124.312 268.406 122.712C268.835 121.112 267.886 119.467 266.285 119.038C264.685 118.609 263.04 119.559 262.611 121.159C262.182 122.759 263.132 124.404 264.732 124.833ZM264.732 124.833L261.109 138.356M261.109 138.356C258.547 137.67 256.363 135.994 255.037 133.697C253.711 131.4 253.351 128.671 254.038 126.109L256.935 126.885M261.109 138.356C263.671 139.043 266.4 138.683 268.697 137.357C270.994 136.031 272.67 133.847 273.356 131.285L270.458 130.509" stroke="#1E1E1E" stroke-width="2.5" stroke-linecap="round" stroke-linejoin="round"/>
</g>
<g clip-path="url(#clip5_1_2)">
<path d="M289 133C290.657 133 292 131.657 292 130C292 128.343 290.657 127 289 127C287.343 127 286 128.343 286 130C286 131.657 287.343 133 289 133Z" stroke="#1E1E1E" stroke-width="2.5" stroke-linecap="round" stroke-linejoin="round"/>
<path d="M296.4 133C296.267 133.302 296.227 133.636 296.286 133.961C296.345 134.285 296.499 134.584 296.73 134.82L296.79 134.88C296.976 135.066 297.123 135.286 297.224 135.529C297.325 135.772 297.377 136.032 297.377 136.295C297.377 136.558 297.325 136.818 297.224 137.061C297.123 137.304 296.976 137.524 296.79 137.71C296.604 137.896 296.384 138.043 296.141 138.144C295.898 138.245 295.638 138.297 295.375 138.297C295.112 138.297 294.852 138.245 294.609 138.144C294.366 138.043 294.146 137.896 293.96 137.71L293.9 137.65C293.664 137.419 293.365 137.265 293.041 137.206C292.716 137.147 292.382 137.187 292.08 137.32C291.784 137.447 291.532 137.657 291.354 137.926C291.177 138.194 291.081 138.508 291.08 138.83V139C291.08 139.53 290.869 140.039 290.494 140.414C290.119 140.789 289.61 141 289.08 141C288.55 141 288.041 140.789 287.666 140.414C287.291 140.039 287.08 139.53 287.08 139V138.91C287.072 138.579 286.965 138.258 286.773 137.989C286.58 137.719 286.311 137.514 286 137.4C285.698 137.267 285.364 137.227 285.039 137.286C284.715 137.345 284.416 137.499 284.18 137.73L284.12 137.79C283.934 137.976 283.714 138.123 283.471 138.224C283.228 138.325 282.968 138.377 282.705 138.377C282.442 138.377 282.182 138.325 281.939 138.224C281.696 138.123 281.476 137.976 281.29 137.79C281.104 137.604 280.957 137.384 280.856 137.141C280.755 136.898 280.703 136.638 280.703 136.375C280.703 136.112 280.755 135.852 280.856 135.609C280.957 135.366 281.104 135.146 281.29 134.96L281.35 134.9C281.581 134.664 281.735 134.365 281.794 134.041C281.853 133.716 281.813 133.382 281.68 133.08C281.553 132.784 281.343 132.532 281.074 132.354C280.806 132.177 280.492 132.081 280.17 132.08H280C279.47 132.08 278.961 131.869 278.586 131.494C278.211 131.119 278 130.61 278 130.08C278 129.55 278.211 129.041 278.586 128.666C278.961 128.291 279.47 128.08 280 128.08H280.09C280.421 128.072 280.742 127.965 281.011 127.773C281.281 127.58 281.486 127.311 281.6 127C281.733 126.698 281.773 126.364 281.714 126.039C281.655 125.715 281.501 125.416 281.27 125.18L281.21 125.12C281.024 124.934 280.877 124.714 280.776 124.471C280.675 124.228 280.623 123.968 280.623 123.705C280.623 123.442 280.675 123.182 280.776 122.939C280.877 122.696 281.024 122.476 281.21 122.29C281.396 122.104 281.616 121.957 281.859 121.856C282.102 121.755 282.362 121.703 282.625 121.703C282.888 121.703 283.148 121.755 283.391 121.856C283.634 121.957 283.854 122.104 284.04 122.29L284.1 122.35C284.336 122.581 284.635 122.735 284.959 122.794C285.284 122.853 285.618 122.813 285.92 122.68H286C286.296 122.553 286.548 122.343 286.726 122.074C286.903 121.806 286.999 121.492 287 121.17V121C287 120.47 287.211 119.961 287.586 119.586C287.961 119.211 288.47 119 289 119C289.53 119 290.039 119.211 290.414 119.586C290.789 119.961 291 120.47 291 121V121.09C291.001 121.412 291.097 121.726 291.274 121.994C291.452 122.263 291.704 122.473 292 122.6C292.302 122.733 292.636 122.773 292.961 122.714C293.285 122.655 293.584 122.501 293.82 122.27L293.88 122.21C294.066 122.024 294.286 121.877 294.529 121.776C294.772 121.675 295.032 121.623 295.295 121.623C295.558 121.623 295.818 121.675 296.061 121.776C296.304 121.877 296.524 122.024 296.71 122.21C296.896 122.396 297.043 122.616 297.144 122.859C297.245 123.102 297.297 123.362 297.297 123.625C297.297 123.888 297.245 124.148 297.144 124.391C297.043 124.634 296.896 124.854 296.71 125.04L296.65 125.1C296.419 125.336 296.265 125.635 296.206 125.959C296.147 126.284 296.187 126.618 296.32 126.92V127C296.447 127.296 296.657 127.548 296.926 127.726C297.194 127.903 297.508 127.999 297.83 128H298C298.53 128 299.039 128.211 299.414 128.586C299.789 128.961 300 129.47 300 130C300 130.53 299.789 131.039 299.414 131.414C299.039 131.789 298.53 132 298 132H297.91C297.588 132.001 297.274 132.097 297.006 132.274C296.737 132.452 296.527 132.704 296.4 133Z" stroke="#1E1E1E" stroke-width="2.5" stroke-linecap="round" stroke-linejoin="round"/>
</g>
<defs>
<linearGradient id="paint0_linear_1_2" x1="14.5" y1="159" x2="442" y2="227.5" gradientUnits="userSpaceOnUse">
<stop stop-color="#4284DB"/>
<stop offset="1" stop-color="#29EAC4"/>
</linearGradient>
<linearGradient id="paint1_linear_1_2" x1="14.5" y1="159" x2="442" y2="227.5" gradientUnits="userSpaceOnUse">
<stop stop-color="#4284DB"/>
<stop offset="1" stop-color="#29EAC4"/>
</linearGradient>
<linearGradient id="paint2_linear_1_2" x1="14.5" y1="159" x2="442" y2="227.5" gradientUnits="userSpaceOnUse">
<stop stop-color="#4284DB"/>
<stop offset="1" stop-color="#29EAC4"/>
</linearGradient>
<linearGradient id="paint3_linear_1_2" x1="14.5" y1="159" x2="442" y2="227.5" gradientUnits="userSpaceOnUse">
<stop stop-color="#4284DB"/>
<stop offset="1" stop-color="#29EAC4"/>
</linearGradient>
<linearGradient id="paint4_linear_1_2" x1="14.5" y1="159" x2="442" y2="227.5" gradientUnits="userSpaceOnUse">
<stop stop-color="#4284DB"/>
<stop offset="1" stop-color="#29EAC4"/>
</linearGradient>
<linearGradient id="paint5_linear_1_2" x1="14.5" y1="159" x2="442" y2="227.5" gradientUnits="userSpaceOnUse">
<stop stop-color="#4284DB"/>
<stop offset="1" stop-color="#29EAC4"/>
</linearGradient>
<linearGradient id="paint6_linear_1_2" x1="14.5" y1="159" x2="442" y2="227.5" gradientUnits="userSpaceOnUse">
<stop stop-color="#4284DB"/>
<stop offset="1" stop-color="#29EAC4"/>
</linearGradient>
<clipPath id="clip0_1_2">
<rect width="20" height="20" fill="white" transform="translate(205 181)"/>
</clipPath>
<clipPath id="clip1_1_2">
<rect width="20" height="20" fill="white" transform="translate(326 121)"/>
</clipPath>
<clipPath id="clip2_1_2">
<rect width="20" height="20" fill="white" transform="translate(389 188)"/>
</clipPath>
<clipPath id="clip3_1_2">
<rect width="32" height="32" fill="white" transform="translate(148.227 119.603) rotate(-20)"/>
</clipPath>
<clipPath id="clip4_1_2">
<rect width="24" height="24" fill="white" transform="translate(255.212 114) rotate(15)"/>
</clipPath>
<clipPath id="clip5_1_2">
<rect width="24" height="24" fill="white" transform="translate(277 118)"/>
</clipPath>
</defs>
</svg>